PathFileType	4	(X/Y/Z)	G:\Shared drives\HPL_Drive\Nord Sprinting Study\Kristen_Nord_test\Trimmed_Nord000007.trc
DataRate	CameraRate	NumFrames	NumMarkers	Units	OrigDataRate	OrigDataStartFrame	OrigNumFrames
200.00	200.00	      4	52	mm	200.00	725	      1933
Frame#	Time	C7			R_Shoulder			L_Shoulder			Sternum			R_humerus			R_elbow_med			R_elbow_lat			R_forearm			R_wrist_radius			R_wrist_ulna			L_humerus			L_elbow_med			L_elbow_lat			L_forearm			L_wrist_radius			L_wrist_ulna			r.ASIS			r.PSIS			r_IC			L.ASIS			L.PSIS			l_IC			r_thigh1			r_thigh2			r_thigh3			r_thigh4			r_thigh5			r_knee			r_mknee			r_shank_antsup			r_sh2			r_sh3			r_sh4			r_ankle			r_mankle			r_calc			r_5meta			r_toe			L_thigh1			L_thigh2			L_thigh3			L_thigh4			L_knee			L_mknee			L_shank_antsup			L_sh2			L_sh3			L_ankle			L_mankle			L_calc			L_5meta			L_toe			
		X1	Y1	Z1	X2	Y2	Z2	X3	Y3	Z3	X4	Y4	Z4	X5	Y5	Z5	X6	Y6	Z6	X7	Y7	Z7	X8	Y8	Z8	X9	Y9	Z9	X10	Y10	Z10	X11	Y11	Z11	X12	Y12	Z12	X13	Y13	Z13	X14	Y14	Z14	X15	Y15	Z15	X16	Y16	Z16	X17	Y17	Z17	X18	Y18	Z18	X19	Y19	Z19	X20	Y20	Z20	X21	Y21	Z21	X22	Y22	Z22	X23	Y23	Z23	X24	Y24	Z24	X25	Y25	Z25	X26	Y26	Z26	X27	Y27	Z27	X28	Y28	Z28	X29	Y29	Z29	X30	Y30	Z30	X31	Y31	Z31	X32	Y32	Z32	X33	Y33	Z33	X34	Y34	Z34	X35	Y35	Z35	X36	Y36	Z36	X37	Y37	Z37	X38	Y38	Z38	X39	Y39	Z39	X40	Y40	Z40	X41	Y41	Z41	X42	Y42	Z42	X43	Y43	Z43	X44	Y44	Z44	X45	Y45	Z45	X46	Y46	Z46	X47	Y47	Z47	X48	Y48	Z48	X49	Y49	Z49	X50	Y50	Z50	X51	Y51	Z51	X52	Y52	Z52	

725	3.620	1225.53577	555.53192	1248.93848	1345.34644	606.68176	1242.29871	1080.14648	591.82404	1257.38818	1208.60876	680.79950	1191.75378	1515.90552	573.45996	1176.85266	1625.19946	598.36774	1065.60596	1628.50256	531.35846	1111.32703	1602.15015	589.95648	1219.69458	1549.83301	671.34186	1291.77625	1590.27625	651.91217	1309.61523	885.50592	539.04700	1197.40063	783.93201	572.96222	1100.19800	779.47998	506.76627	1141.01172	832.84534	574.12634	1260.59412	890.72894	631.77960	1319.03601	842.35907	634.57416	1334.76416	1326.43262	590.83636	721.00232	1284.92407	451.22244	852.78796	1364.72961	560.83411	826.23596	1087.34412	575.16254	723.61151	1167.74133	445.70908	848.33588	1063.77527	547.79688	819.31915	1384.49097	469.53198	491.47717	1373.90222	425.16525	385.09091	1387.95825	371.61102	376.48694	1394.18274	371.04089	534.74432	1373.09619	328.52560	424.94043	1367.60913	352.28900	301.22021	1244.32153	336.25012	322.15237	1385.96790	215.34555	291.74286	1368.21753	97.08325	298.62219	1399.18848	216.30827	365.25812	1380.76233	103.15148	379.59827	1359.40540	-64.61436	346.45044	1278.35730	-51.95970	330.05731	1310.33704	-87.51057	413.73602	1369.04944	-147.87343	258.04773	1325.05579	-131.92387	207.79779	1024.65613	469.40289	498.87546	1032.80603	422.52719	365.38022	1028.92603	358.53552	546.41193	1038.13208	318.69687	416.35742	1024.65039	336.66183	325.25763	1152.33081	341.77591	305.99478	1013.98669	223.18459	303.51944	1013.60999	229.90530	393.31598	1031.44763	110.24369	393.92435	1046.71350	-70.79805	352.51218	1125.50647	-45.48174	338.99557	1089.36169	-70.96902	416.32684	1070.22681	-164.68729	254.93987	1107.23315	-139.34982	213.32310	
726	3.625	1225.48706	555.96515	1248.84192	1345.15247	606.94159	1242.17114	1080.18103	592.38226	1257.16492	1208.47754	681.17133	1191.60388	1515.86060	573.76001	1176.61523	1625.08704	598.61725	1065.31787	1628.36658	531.60724	1111.14001	1602.12781	590.27496	1219.42078	1549.92725	671.70892	1291.49829	1590.32239	652.24768	1309.34216	885.44025	539.47845	1197.48523	783.81970	573.42908	1100.22351	779.39722	507.22937	1141.06909	832.82349	574.62927	1260.61072	890.74396	632.34796	1318.99731	842.34998	635.12567	1334.76526	1326.34485	590.99182	720.82062	1284.87659	451.52988	852.71246	1364.58752	561.11536	826.14984	1087.22351	575.28650	723.49548	1167.64917	445.99634	848.31915	1063.65698	548.00330	819.22058	1384.40540	469.74539	491.39557	1373.79346	425.31400	385.00412	1387.93176	371.73541	376.47076	1394.19458	371.20206	534.73132	1372.86926	328.45050	425.18192	1367.58655	352.31100	301.27203	1244.30322	336.25198	322.13965	1385.21191	214.89847	290.82690	1368.31543	97.13134	298.63406	1399.28040	216.36346	365.25247	1380.89246	103.19550	379.59454	1359.51917	-64.55810	346.53873	1278.93726	-52.01309	330.10522	1310.53198	-87.50030	413.76123	1368.91235	-147.79935	257.92825	1325.30054	-131.93204	207.78128	1025.11414	469.19403	498.05505	1032.71265	422.41678	365.38153	1028.91882	358.59225	546.39789	1038.13916	318.71387	416.34564	1024.64392	336.65552	325.23547	1152.29578	341.76880	306.03540	1013.96942	223.15434	303.62836	1013.61053	229.91833	393.29828	1031.45349	110.25381	393.92188	1046.76990	-70.81207	352.54642	1125.59778	-45.45619	339.01794	1089.43811	-70.94557	416.36072	1069.45117	-164.47627	255.64777	1107.44751	-139.34622	213.31979	
727	3.630	1225.44470	556.38403	1248.74402	1345.14038	607.30743	1242.01709	1080.02673	592.77460	1257.19080	1208.42468	681.62042	1191.52966	1515.78406	574.08368	1176.39380	1624.95520	598.81433	1065.05444	1628.26868	531.85376	1110.85925	1602.09839	590.58990	1219.15137	1550.02637	672.05505	1291.21802	1590.18457	652.55719	1308.79517	885.36554	539.99310	1197.49524	783.73175	573.86804	1100.21814	779.29834	507.69870	1141.13745	832.82776	575.11993	1260.65625	890.74774	632.88538	1318.97278	842.39185	635.70313	1334.73193	1326.27844	591.23926	720.66675	1284.81055	451.80917	852.68774	1364.49780	561.41589	826.06531	1087.16101	575.45691	723.41351	1167.77063	446.26056	848.53229	1063.57239	548.23535	819.12183	1384.33850	469.98291	491.39395	1373.74622	425.39612	385.00192	1387.91223	371.87164	376.46207	1394.18127	371.38104	534.70825	1373.31885	328.95123	424.79034	1367.58289	352.33307	301.29257	1244.09875	335.74850	322.40939	1385.30249	214.95859	290.83575	1368.42517	97.16718	298.64792	1399.83252	216.47932	365.15817	1381.00305	103.23562	379.59378	1360.01587	-64.55643	346.63052	1279.09619	-52.00461	330.14737	1310.73938	-87.45776	413.78406	1369.19690	-147.72090	257.98331	1325.61804	-131.92314	207.83107	1025.03040	469.20200	497.96149	1032.66418	422.36963	365.30243	1028.78613	358.11121	545.55322	1038.14111	318.72171	416.35049	1024.64343	336.67377	325.19733	1152.32544	341.75879	306.03140	1013.97504	223.14156	303.67310	1013.58246	229.94009	393.30115	1031.45386	110.24100	393.92593	1046.80103	-70.78727	352.51999	1125.61304	-45.47475	339.04190	1089.46167	-70.93797	416.43140	1069.51099	-164.48196	255.65666	1107.56702	-139.35031	213.28886	
728	3.635	1225.40112	556.82623	1248.64124	1345.10425	607.67419	1241.86047	1079.99670	593.23535	1257.10120	1208.37695	681.98352	1191.31470	1515.73267	574.40143	1176.15576	1624.85388	599.02277	1064.80237	1628.15417	532.07739	1110.58728	1602.10742	590.87976	1218.85083	1550.12354	672.44409	1290.89966	1590.37085	652.91711	1308.35522	885.29645	540.46613	1197.47961	783.67395	574.34448	1100.25745	779.19958	508.16849	1141.17419	832.79651	575.67340	1260.69482	890.76196	633.40863	1318.92358	842.41510	636.26282	1334.69507	1326.18274	591.48083	720.53564	1284.72473	452.12057	852.63837	1364.40393	561.75641	825.94019	1087.07678	575.60626	723.24194	1167.73450	446.50992	848.46790	1063.49988	548.44592	819.02203	1384.29578	470.17133	491.35095	1373.67920	425.54007	384.95425	1388.41809	372.13492	376.52322	1394.17529	371.61453	534.67139	1373.33264	329.10419	424.76816	1367.51660	352.37601	301.31100	1244.08386	335.75818	322.41736	1385.60632	215.08574	290.96750	1368.54578	97.20294	298.68680	1399.45276	216.49997	365.32132	1381.13147	103.26575	379.64163	1360.20361	-64.46973	346.66980	1279.27405	-52.01460	330.22739	1310.86670	-87.49022	413.70313	1369.51794	-147.65250	258.06873	1325.88306	-131.87971	207.85692	1024.97742	469.26459	497.89737	1032.70605	422.53348	365.23834	1028.74292	358.17377	545.56940	1038.11584	318.72882	416.34402	1024.62134	336.65778	325.17987	1152.31567	341.82632	305.98145	1013.98364	223.08884	303.60284	1013.57037	229.91266	393.29031	1031.44397	110.23348	393.92706	1046.81104	-70.79336	352.54346	1125.61877	-45.44252	339.07098	1089.39734	-70.91695	416.46494	1069.54248	-164.51436	255.69975	1107.66895	-139.38734	213.26601	
